# xmcd
#
# Track frame offsets:
#	150
#	93407
#	118276
#	167057
#	204767
#
# Disc length: 3256 seconds
#
# Revision: 0
# Processed by: cddbd v1.5.2PL0 Copyright (c) Steve Scherf et al.
# Submitted via: audiograbber 1.83.01
#
DISCID=3b0cb605
DTITLE=Grateful Dead - 93-01-26 Oakland Coliseum Arena, Oakland CA
DYEAR=1900
DGENRE=
TTITLE0=Space
TTITLE1=The Other One
TTITLE2=Stella Blue
TTITLE3=Turn On Your Lovelight
TTITLE4=Gloria
EXTD=
EXTT0=
EXTT1=
EXTT2=
EXTT3=
EXTT4=
PLAYORDER=
